<?xml version="1.0" encoding="utf-8"?>
<!-- Generator: Adobe Illustrator 16.0.0, SVG Export Plug-In . SVG Version: 6.00 Build 0)  -->
<!DOCTYPE svg PUBLIC "-//W3C//DTD SVG 1.1//EN" "http://www.w3.org/Graphics/SVG/1.1/DTD/svg11.dtd">
<svg version="1.1" xmlns="http://www.w3.org/2000/svg" xmlns:xlink="http://www.w3.org/1999/xlink" x="0px" y="0px" width="500px"
	 height="500px" viewBox="0 0 500 500" enable-background="new 0 0 500 500" xml:space="preserve">
<g id="background">
	<rect x="-0.5" y="0.5" fill="#E9F7FA" stroke="#000000" stroke-miterlimit="10" width="500" height="500"/>
</g>
<g id="Layer_2">
	<path display="none" fill="#FFFFFF" stroke="#000000" stroke-miterlimit="10" d="M406.5,305.5c0,3.866-3.134,7-7,7h-336
		c-3.866,0-7-3.134-7-7v-186c0-3.866,3.134-7,7-7h336c3.866,0,7,3.134,7,7V305.5z"/>
	<path display="none" fill="#FFFFFF" stroke="#000000" stroke-miterlimit="10" d="M418.5,326.5c0,3.866-3.134,7-7,7h-336
		c-3.866,0-7-3.134-7-7v-186c0-3.866,3.134-7,7-7h336c3.866,0,7,3.134,7,7V326.5z"/>
	<g>
		<path fill="#FFFFFF" stroke="#000000" stroke-miterlimit="10" d="M444.342,285.705c1.16,3.688-0.89,7.617-4.577,8.777
			L119.247,395.302c-3.688,1.16-7.618-0.889-8.778-4.577l-55.811-177.43c-1.16-3.688,0.889-7.617,4.577-8.777l320.518-100.819
			c3.688-1.16,7.618,0.889,8.778,4.577L444.342,285.705z"/>
		<g>
			<path fill="#E6E6E6" d="M370.568,192.811c0.705,2.239-0.539,4.625-2.778,5.329l-244.681,76.965
				c-2.239,0.704-4.625-0.54-5.33-2.779l-0.15-0.477c-0.705-2.239,0.54-4.625,2.779-5.329l244.681-76.965
				c2.239-0.705,4.625,0.539,5.33,2.778L370.568,192.811z"/>
			<path fill="#E6E6E6" d="M381.07,226.197c0.705,2.24-0.539,4.625-2.778,5.33l-244.681,76.964c-2.239,0.705-4.625-0.539-5.33-2.778
				l-0.15-0.478c-0.705-2.239,0.54-4.625,2.779-5.329l244.681-76.965c2.239-0.704,4.625,0.54,5.33,2.779L381.07,226.197z"/>
			<path fill="#E6E6E6" d="M391.272,258.631c0.704,2.239-0.539,4.625-2.779,5.329l-244.68,76.965
				c-2.239,0.704-4.625-0.539-5.33-2.778l-0.15-0.478c-0.705-2.239,0.54-4.625,2.779-5.329l244.681-76.965
				c2.239-0.704,4.625,0.539,5.329,2.779L391.272,258.631z"/>
		</g>
	</g>
</g>
</svg>
